# xmcd
#
# Track frame offsets:
#	200
#	12067
#	24550
#	34495
#	46147
#	59965
#	72907
#	84615
#	100180
#	112087
#	124975
#	135852
#
# Disc length: 1976 seconds
# Revision: 2
# Processed by: cddbd v1.5.2PL0 Copyright (c) Steve Scherf et al.
# Submitted via: dBpowerAMP V12.0
#
DISCID=a607b60c
DTITLE=Doyle Lawson and Quicksilver - My Heart Is Yours
DYEAR=1990
DGENRE=Country
TTITLE0=All in My Love for You
TTITLE1=Still Got a Crush on You
TTITLE2=Move to the Top of the Mountain
TTITLE3=I Don't Care
TTITLE4=My Heart Is Yours
TTITLE5=Dreaming of You
TTITLE6=Look for Me and I'll Be There
TTITLE7=A Date With an Angel
TTITLE8=Now There's You
TTITLE9=Between Us
TTITLE10=I'm Satisfied With You
TTITLE11=We Were Made for Each Other
EXTD=
EXTT0=
EXTT1=
EXTT2=
EXTT3=
EXTT4=
EXTT5=
EXTT6=
EXTT7=
EXTT8=
EXTT9=
EXTT10=
EXTT11=
PLAYORDER=
